<?xml version="1.0" standalone="no"?>
<!DOCTYPE svg PUBLIC "-//W3C//DTD SVG 20010904//EN"
 "http://www.w3.org/TR/2001/REC-SVG-20010904/DTD/svg10.dtd">
<svg version="1.0" xmlns="http://www.w3.org/2000/svg"
 width="814.000000pt" height="814.000000pt" viewBox="0 0 814.000000 814.000000"
 preserveAspectRatio="xMidYMid meet">
<metadata>
Created by potrace 1.14, written by Peter Selinger 2001-2017
</metadata>
<g transform="translate(0.000000,814.000000) scale(0.100000,-0.100000)"
fill="#000000" stroke="none">
<path d="M5313 7335 c-37 -16 -52 -41 -57 -92 -10 -125 103 -263 224 -274 79
-7 150 51 150 122 0 140 -201 295 -317 244z"/>
<path d="M3302 7313 c-41 -20 -55 -59 -50 -135 6 -96 49 -167 130 -216 96 -59
209 -17 224 83 8 55 -28 135 -91 198 -71 73 -152 100 -213 70z"/>
<path d="M5741 7252 c-17 -17 -31 -36 -32 -44 0 -7 -2 -21 -4 -31 -5 -28 15
-89 42 -125 49 -65 190 -135 253 -125 36 5 88 44 101 75 10 24 8 36 -14 81
-58 116 -148 184 -258 194 -54 5 -60 4 -88 -25z"/>
<path d="M3733 7193 c-48 -43 -57 -118 -22 -190 38 -78 163 -162 242 -163 46
0 103 35 116 71 15 44 -44 170 -109 227 -71 64 -185 91 -227 55z"/>
<path d="M2994 7110 c-89 -59 -66 -204 47 -303 64 -56 120 -77 169 -64 50 13
90 45 107 84 13 32 12 38 -10 87 -29 63 -120 156 -180 185 -62 29 -100 32
-133 11z"/>
<path d="M5013 7092 c-95 -75 -23 -253 133 -327 65 -31 116 -29 164 7 87 64
78 138 -28 236 -96 89 -216 126 -269 84z"/>
<path d="M743 6992 l-53 -3 0 -1435 0 -1434 274 0 273 0 -1 608 -1 607 93 1
c317 5 479 30 627 100 292 136 448 402 439 749 -4 188 -44 326 -130 455 -133
200 -315 300 -609 334 -125 15 -752 27 -912 18z m877 -552 c83 -16 157 -56
192 -104 41 -56 49 -80 53 -161 7 -131 -55 -231 -173 -276 -49 -19 -84 -22
-254 -27 l-198 -5 -1 29 c-1 38 -1 513 0 541 l1 23 163 -4 c89 -3 187 -10 217
-16z"/>
<path d="M5547 6896 c-90 -24 -122 -101 -120 -291 1 -102 4 -125 28 -213 26
-93 102 -155 170 -138 24 6 48 28 182 170 35 36 109 97 167 135 109 74 146
110 146 145 0 24 -34 84 -59 103 -90 71 -388 122 -514 89z"/>
<path d="M3463 6845 c-71 -31 -114 -152 -116 -325 -1 -156 10 -212 54 -261 30
-34 60 -49 96 -49 33 0 59 16 139 87 32 28 73 63 89 78 29 25 85 58 214 126
69 37 111 79 111 111 0 60 -62 126 -156 166 -176 74 -352 102 -431 67z"/>
<path d="M2984 6702 c-26 -18 -44 -60 -44 -102 0 -119 142 -271 252 -270 39 1
56 12 90 64 20 30 26 47 22 78 -7 79 -83 174 -169 214 -49 23 -128 32 -151 16z"/>
<path d="M5115 6704 c-5 -1 -23 -5 -38 -8 -60 -14 -80 -100 -41 -183 41 -86
163 -175 240 -175 55 0 72 11 99 66 36 74 23 127 -53 205 -52 54 -165 106
-207 95z"/>
<path d="M6671 5655 c-68 -23 -90 -91 -64 -194 25 -95 82 -164 165 -201 152
-67 282 38 227 183 -52 141 -220 250 -328 212z"/>
<path d="M7151 5564 c-13 -9 -31 -34 -41 -56 -22 -49 -12 -114 26 -172 36 -54
68 -80 150 -121 95 -47 150 -49 202 -8 20 16 43 42 51 57 11 24 11 33 -4 66
-33 72 -93 152 -141 186 -82 59 -195 81 -243 48z"/>
<path d="M6333 5394 c-63 -32 -80 -129 -38 -217 42 -90 179 -187 263 -187 80
0 168 88 156 156 -12 67 -107 172 -205 223 -71 39 -133 47 -176 25z"/>
<path d="M2758 5198 c-2 -7 -3 -73 -2 -145 2 -117 0 -133 -15 -134 -44 -4 -67
-6 -76 -7 -12 -2 -15 -161 -3 -163 4 -1 27 -2 51 -3 l42 -1 2 -295 c1 -162 2
-303 2 -312 1 -16 13 -18 99 -18 l97 0 0 303 c0 166 1 307 3 313 2 6 25 10 57
9 30 -1 55 1 56 4 7 38 3 161 -6 163 -5 0 -28 2 -50 2 -22 1 -45 5 -50 8 -7 4
-10 60 -10 147 l2 141 -98 0 c-69 0 -98 -4 -101 -12z"/>
<path d="M4304 5176 c-81 -35 -67 -206 23 -304 109 -118 283 -84 283 55 0 82
-83 198 -173 242 -50 24 -89 26 -133 7z"/>
<path d="M6965 5165 c-5 -2 -27 -6 -47 -10 -97 -16 -139 -104 -144 -300 -5
-182 26 -325 79 -371 95 -82 146 -72 260 53 96 104 141 143 268 228 136 90
169 122 169 165 0 46 -55 116 -113 144 -68 32 -173 63 -255 77 -67 11 -198 19
-217 14z"/>
<path d="M4758 5072 c-29 -12 -61 -62 -65 -105 -5 -49 13 -99 54 -148 37 -43
134 -105 178 -113 78 -15 160 44 148 107 -6 35 -54 130 -81 162 -30 36 -108
84 -153 94 -50 12 -58 12 -81 3z"/>
<path d="M3994 4971 c-110 -68 -37 -273 123 -347 75 -36 148 -18 193 47 29 39
23 82 -21 145 -90 132 -222 201 -295 155z"/>
<path d="M6363 4934 c-33 -16 -53 -56 -53 -104 0 -122 158 -283 289 -294 34
-3 48 1 73 22 90 76 79 187 -29 296 -76 77 -211 116 -280 80z"/>
<path d="M2002 4925 c-138 -32 -237 -123 -290 -266 -16 -44 -20 -74 -18 -150
3 -104 22 -169 66 -234 30 -44 94 -105 109 -105 5 0 11 -4 13 -8 2 -4 28 -19
58 -31 43 -19 76 -25 155 -27 155 -4 248 29 334 118 22 24 41 46 41 49 0 3
-36 23 -81 43 l-81 37 -37 -25 c-53 -37 -89 -48 -158 -49 -106 -1 -188 52
-219 141 l-12 37 323 3 323 2 -3 66 c-8 128 -44 214 -121 291 -54 55 -131 97
-194 108 -71 12 -156 12 -208 0z m172 -166 c24 -6 60 -24 80 -41 37 -30 72
-85 62 -96 -8 -8 -405 -6 -413 1 -9 10 43 84 72 103 63 41 126 52 199 33z"/>
<path d="M4490 4717 c-43 -11 -67 -31 -91 -79 -55 -109 -68 -367 -23 -474 16
-37 65 -81 102 -91 34 -8 91 23 162 89 83 77 156 128 253 178 123 62 157 92
157 136 0 55 -47 114 -116 148 -156 76 -351 117 -444 93z"/>
<path d="M3993 4567 c-32 -14 -56 -72 -50 -118 12 -92 89 -192 179 -234 67
-31 89 -31 128 1 39 33 60 74 60 116 0 39 -45 121 -90 165 -63 61 -173 95
-227 70z"/>
<path d="M702 2321 l3 -1436 263 0 c145 0 266 3 269 7 2 5 4 295 4 647 l1 638
426 1 c235 0 434 1 443 1 14 1 16 30 16 261 -1 177 -4 260 -11 261 -6 0 -204
1 -441 2 l-430 2 -2 260 -2 260 442 0 442 0 1 266 0 267 -713 -1 -713 0 2
-1436z"/>
<path d="M6104 3625 c-38 -17 -63 -66 -66 -131 -4 -98 12 -144 72 -217 75 -90
175 -117 250 -69 59 39 78 93 59 169 -44 169 -204 295 -315 248z"/>
<path d="M6591 3453 c-70 -35 -93 -135 -51 -229 24 -55 115 -145 175 -174 75
-36 115 -32 183 17 25 19 32 31 32 58 0 44 -35 138 -72 195 -66 99 -199 166
-267 133z"/>
<path d="M5763 3442 c-57 -9 -101 -96 -89 -179 17 -125 150 -263 254 -263 90
0 171 74 158 144 -10 54 -58 133 -116 195 -75 78 -145 113 -207 103z"/>
<path d="M6236 3087 c-76 -26 -130 -138 -163 -337 -3 -19 -5 -80 -6 -135 0
-106 11 -143 57 -193 68 -75 117 -65 281 57 93 70 151 102 275 152 154 62 189
88 190 140 0 81 -63 150 -205 220 -170 84 -348 124 -429 96z"/>
<path d="M5688 2974 c-40 -21 -59 -65 -57 -129 6 -136 150 -304 263 -305 65 0
139 96 130 168 -19 159 -229 325 -336 266z"/>
<path d="M2277 1995 c-41 -21 -58 -42 -67 -79 -11 -50 0 -94 32 -126 69 -69
182 -42 209 51 33 108 -76 205 -174 154z"/>
<path d="M5199 1978 c0 -7 0 -95 0 -196 l0 -183 -32 25 c-76 57 -116 70 -217
71 -82 0 -102 -3 -150 -26 -97 -47 -169 -130 -205 -239 -25 -75 -25 -216 0
-290 82 -245 349 -350 549 -215 l51 34 5 -37 5 -37 95 0 95 0 1 553 1 552 -98
0 c-72 0 -99 -3 -100 -12z m-101 -488 c142 -80 146 -321 7 -409 -77 -49 -192
-40 -257 20 -71 66 -95 196 -53 287 25 53 75 100 127 118 47 17 132 9 176 -16z"/>
<path d="M4040 1696 c-25 -5 -74 -27 -109 -48 -34 -21 -64 -38 -66 -38 -1 0
-2 16 0 35 l2 35 -101 0 -102 0 0 -395 c0 -268 3 -395 11 -396 46 -5 185 -5
186 0 0 3 2 112 3 241 2 195 6 242 20 275 41 97 129 138 210 100 68 -32 75
-68 76 -372 1 -134 4 -244 8 -244 4 -1 49 -2 100 -3 l93 -2 -3 316 c-3 304 -4
316 -25 357 -13 23 -34 53 -48 68 -60 59 -168 89 -255 71z"/>
<path d="M5835 1702 c-110 -11 -204 -97 -221 -200 -17 -109 52 -200 223 -291
116 -61 139 -90 109 -136 -9 -14 -22 -25 -29 -26 -6 0 -20 -2 -30 -4 -33 -6
-111 24 -146 56 l-33 32 -59 -59 c-32 -32 -59 -66 -59 -75 0 -37 117 -114 193
-126 152 -25 273 20 334 124 23 40 28 59 28 113 -1 121 -50 183 -208 262 -139
70 -161 93 -119 131 31 28 84 21 143 -18 l52 -36 59 58 c32 31 58 60 58 64 0
14 -66 71 -105 92 -45 23 -144 44 -190 39z"/>
<path d="M1955 1685 c-37 -17 -54 -31 -83 -69 l-22 -29 0 47 0 46 -85 0 -85 0
2 -397 3 -398 95 0 95 0 5 265 c7 300 13 332 75 366 28 15 38 16 61 6 14 -7
28 -11 29 -10 2 2 17 40 34 86 l30 83 -25 9 c-36 14 -94 12 -129 -5z"/>
<path d="M2898 1681 c-133 -43 -235 -159 -267 -301 -13 -60 -7 -195 12 -246
59 -162 196 -259 379 -267 131 -7 230 24 316 98 76 66 75 70 -20 114 l-83 38
-31 -23 c-122 -93 -303 -61 -366 66 -15 30 -25 57 -22 60 3 3 148 5 322 5
l317 0 -1 60 c-2 85 -10 122 -44 192 -40 81 -106 146 -188 185 -59 27 -80 32
-167 35 -78 2 -113 -1 -157 -16z m228 -164 c49 -21 83 -48 104 -82 11 -18 20
-37 20 -42 0 -6 -80 -10 -210 -10 -151 0 -210 4 -210 12 0 32 73 104 125 123
42 15 137 14 171 -1z"/>
<path d="M2232 1283 l3 -397 98 -1 97 -1 0 398 0 398 -100 0 -100 0 2 -397z"/>
</g>
</svg>
